<svg xmlns="http://www.w3.org/2000/svg" width="513.01" height="196.662" viewBox="0 0 513.01 196.662">
  <defs>
    <style>
      .cls-1 {
        fill: #746662;
      }

      .cls-2 {
        fill: #fb780e;
      }
    </style>
  </defs>
  <g id="EU_2019_LOGOS_ESPACIO_URBANO__Mesa_de_trabajo_1_copia_8" data-name="EU | 2019 | LOGOS ESPACIO URBANO _Mesa de trabajo 1 copia 8" transform="translate(-100 -90.43)">
    <path id="Trazado_47" data-name="Trazado 47" class="cls-1" d="M166.993,290.386h30.4V368.2h-30.4V355.846a27.089,27.089,0,0,1-7.048,7.3,94.408,94.408,0,0,1-38.139-72.755h23.563v40.948q0,5.482,2.941,8.691a10.2,10.2,0,0,0,7.88,3.221,10.056,10.056,0,0,0,7.934-3.221,12.614,12.614,0,0,0,2.884-8.691ZM231.6,305.15V290.386H201.2v77.769h30.4V336.519q0-7.662,4.044-10.684t12.667-3.015h8.351V290.381a25.773,25.773,0,0,0-13.69,4.024,36.892,36.892,0,0,0-11.37,10.737m28.86-79.824V207.69a93.631,93.631,0,0,1,31.759,31.526,15.749,15.749,0,0,0-1.491,7.075q0,6.168,3.153,9.589a10.37,10.37,0,0,0,7.483,3.367,92.952,92.952,0,0,1,4.343,25.928,22.323,22.323,0,0,1-6.562-2.371,20.979,20.979,0,0,1-8.289-8.429v26.5a20.9,20.9,0,0,1,8.253-8.369,22.139,22.139,0,0,1,6.6-2.386,92.954,92.954,0,0,1-4.361,25.922,10.414,10.414,0,0,0-7.519,3.37q-3.159,3.43-3.153,9.589a15.682,15.682,0,0,0,1.506,7.1,93.563,93.563,0,0,1-31.765,31.511V274.767a25.139,25.139,0,0,1-10.863,7.922,45.855,45.855,0,0,1-17.389,3.012q-16.7,0-26.572-7.122c-6.562-4.745-10.5-12.369-12.059-21.317H223c.549,4.474,3.281,7.5,9.031,7.5q4.656,0,4.653-3.281c0-1.733-1.041-3.007-3.147-3.83a58.4,58.4,0,0,0-10.141-2.473,108.6,108.6,0,0,1-14.725-3.83,24.4,24.4,0,0,1-10.2-6.982q-4.39-4.939-4.384-13.565a21.751,21.751,0,0,1,3.7-12.461,24.562,24.562,0,0,1,10.955-8.629q7.254-3.15,17.669-3.147,15.745,0,25.129,7.6a32.543,32.543,0,0,1,8.909,11.185m0,8.879h-25.4q-1.772-6.562-9.312-6.562-4.247,0-4.244,3.281c0,1.557,1.029,2.738,3.084,3.561a61.95,61.95,0,0,0,9.789,2.6,96.071,96.071,0,0,1,15,3.9,26.065,26.065,0,0,1,10.738,7.325c.134.146.224.337.352.489Zm-137.23,36.3c-.6-.823-1.133-1.694-1.67-2.565a93.3,93.3,0,0,1,43.681-60.517,2.074,2.074,0,0,1,.239.039,39.725,39.725,0,0,1,10.406,3.689,34.02,34.02,0,0,1,13.968,13.49q5,8.763,5,20.675a28.567,28.567,0,0,1-.683,6.025H145.545q.412,5.759,2.6,7.874a7.894,7.894,0,0,0,5.751,2.124,7.4,7.4,0,0,0,7.123-4.519H193.2a33.4,33.4,0,0,1-6.923,14.722,37.1,37.1,0,0,1-13.294,10.266,40.759,40.759,0,0,1-17.6,3.761,42.765,42.765,0,0,1-20.476-4.793,33.983,33.983,0,0,1-11.692-10.272M145.814,238.9h18.224q0-4.384-2.464-6.508a9.209,9.209,0,0,0-6.186-2.141q-8.351,0-9.586,8.632" transform="translate(-15.122 -81.493)"/>
    <path id="Trazado_48" data-name="Trazado 48" class="cls-2" d="M1441.855,120.56q7.812,0,12.6-4.247a13.705,13.705,0,0,0,4.8-10.684,14,14,0,0,0-4.8-10.887q-4.8-4.307-12.6-4.313-7.948,0-12.736,4.313a14.061,14.061,0,0,0-4.8,10.887,13.657,13.657,0,0,0,4.8,10.684q4.8,4.244,12.736,4.247" transform="translate(-929.326 0)"/>
    <path id="Trazado_49" data-name="Trazado 49" class="cls-2" d="M1622.679,224.668a35.379,35.379,0,0,0-14.591-13.765,48.194,48.194,0,0,0-41.906,0,35.356,35.356,0,0,0-14.582,13.765,44.568,44.568,0,0,0,0,42.049,35.406,35.406,0,0,0,14.588,13.765,48.248,48.248,0,0,0,41.906,0,35.435,35.435,0,0,0,14.591-13.765q5.27-8.975,5.27-21.024a40.789,40.789,0,0,0-5.267-21.025m-28.436,30.954a9.314,9.314,0,0,1-14.317,0q-2.809-3.355-2.813-9.929t2.881-9.929a9.241,9.241,0,0,1,14.249,0q2.871,3.356,2.878,9.929t-2.878,9.929" transform="translate(-1014.945 -81.177)"/>
    <rect id="Rectángulo_125" data-name="Rectángulo 125" class="cls-2" width="30.405" height="77.244" transform="translate(497.189 126.722)"/>
    <path id="Trazado_50" data-name="Trazado 50" class="cls-2" d="M152.255,207.114a48.4,48.4,0,0,0-9.828-1.014,42.683,42.683,0,0,0-20.473,4.8,34.073,34.073,0,0,0-13.974,13.759q-5,8.975-4.981,21.024t4.981,21.022c.182.325.409.6.6.916a93.273,93.273,0,0,1,43.677-60.508" transform="translate(-2.105 -81.17)"/>
    <path id="Trazado_51" data-name="Trazado 51" class="cls-2" d="M1522.763,502.941a35.413,35.413,0,0,0-14.588-13.768,45.466,45.466,0,0,0-20.953-4.793,44.725,44.725,0,0,0-20.943,4.793,35.4,35.4,0,0,0-14.589,13.768q-5.27,8.974-5.27,21.024t5.27,21.022a35.358,35.358,0,0,0,14.589,13.768,44.942,44.942,0,0,0,20.956,4.772,45.616,45.616,0,0,0,20.953-4.772,35.375,35.375,0,0,0,14.588-13.768,44.563,44.563,0,0,0,0-42.046m-28.421,30.953a9.318,9.318,0,0,1-14.317,0q-2.8-3.358-2.8-9.929t2.879-9.932a9.239,9.239,0,0,1,14.242,0q2.873,3.355,2.878,9.932c0,4.388-.963,7.689-2.878,9.929" transform="translate(-944.834 -276.449)"/>
    <path id="Trazado_52" data-name="Trazado 52" class="cls-2" d="M104.435,487.6H100v44.787q0,15.211,7.457,24.1t20.741,8.9a28,28,0,0,0,14.182-3.421c.516-.3.987-.635,1.473-.957A93.034,93.034,0,0,1,104.435,487.6" transform="translate(0 -278.709)"/>
    <path id="Trazado_53" data-name="Trazado 53" class="cls-2" d="M619.2,239.581a10.674,10.674,0,0,1,1.658-2.505,10.866,10.866,0,0,1,1.491-1.336,10.658,10.658,0,0,1,6.562-2.088A10.491,10.491,0,0,1,637,237.072q3.146,3.421,3.147,9.586T637,256.247a10.336,10.336,0,0,1-3.648,2.58,11.436,11.436,0,0,1-4.438.841c-.209,0-.391-.048-.6-.054a93,93,0,0,1,4.364,25.919,29.991,29.991,0,0,0,5.091.635c.426.018.835.074,1.274.074a29.2,29.2,0,0,0,16.3-4.728,31.949,31.949,0,0,0,11.435-13.7,44.275,44.275,0,0,0,3.558-12.718,44.77,44.77,0,0,0,3.627,13.255A31.891,31.891,0,0,0,685.4,282.047a29.2,29.2,0,0,0,16.294,4.724,26.117,26.117,0,0,0,13.01-3.084,20.879,20.879,0,0,0,8.351-8.423v10.544h30.261v-77.25H723.087V219.1a20.878,20.878,0,0,0-8.351-8.429,26.125,26.125,0,0,0-13.01-3.075,29.228,29.228,0,0,0-16.294,4.722,31.9,31.9,0,0,0-11.438,13.7,44.372,44.372,0,0,0-3.555,12.718,44.406,44.406,0,0,0-3.63-13.246,31.871,31.871,0,0,0-11.435-13.7,29.212,29.212,0,0,0-16.3-4.721,25.757,25.757,0,0,0-12.936,3.075,21.005,21.005,0,0,0-8.289,8.423V208.042H587.44v.018a93.611,93.611,0,0,1,31.759,31.52m84.578-1.974a11.248,11.248,0,0,1,16.154.009q3.159,3.427,3.156,9.586t-3.156,9.589a11.245,11.245,0,0,1-16.154,0q-3.159-3.424-3.156-9.589t3.156-9.586" transform="translate(-342.055 -81.851)"/>
    <path id="Trazado_54" data-name="Trazado 54" class="cls-2" d="M621.889,644.425a11.416,11.416,0,0,1-1.151-1.023,10.611,10.611,0,0,1-1.641-2.481,93.706,93.706,0,0,1-31.777,31.505h5.6a95.145,95.145,0,0,0,28.97-28.009" transform="translate(-341.971 -386.3)"/>
    <path id="Trazado_55" data-name="Trazado 55" class="cls-2" d="M729.328,511.84a94.313,94.313,0,0,0,4.683-27.27,31.092,31.092,0,0,0-5.07.629,93.182,93.182,0,0,1-4.361,25.928c.188,0,.367-.051.561-.051a11.424,11.424,0,0,1,4.176.763" transform="translate(-438.292 -276.583)"/>
    <path id="Trazado_56" data-name="Trazado 56" class="cls-2" d="M736.389,485.343V495.9a20.879,20.879,0,0,0-8.351-8.423,26.126,26.126,0,0,0-13.01-3.087,29.217,29.217,0,0,0-16.3,4.727,31.894,31.894,0,0,0-11.435,13.7,44.883,44.883,0,0,0-3.737,13.982,45.249,45.249,0,0,0-3.74-13.991,31.94,31.94,0,0,0-11.435-13.7,29.155,29.155,0,0,0-16.3-4.727c-.432,0-.835.054-1.262.074-2.732,9.935-3.683,17.523-4.68,27.267a10.255,10.255,0,0,1,3.877,2.655q3.159,3.421,3.153,9.586t-3.153,9.589a10.415,10.415,0,0,1-8.074,3.421,10.543,10.543,0,0,1-6.929-2.386c-7.809,6.675-17.3,16.354-28.979,28.01h24.813V552.044a21,21,0,0,0,8.289,8.423,25.741,25.741,0,0,0,12.935,3.076,29.2,29.2,0,0,0,16.3-4.721,32.035,32.035,0,0,0,11.444-13.708,45.215,45.215,0,0,0,3.74-13.991,44.99,44.99,0,0,0,3.731,13.991,31.869,31.869,0,0,0,11.435,13.7,29.211,29.211,0,0,0,16.3,4.722,26.166,26.166,0,0,0,13.01-3.075,20.931,20.931,0,0,0,8.352-8.423v10.54h30.267v-77.25Zm-3.15,48.208a11.242,11.242,0,0,1-16.163,0q-3.156-3.421-3.153-9.589t3.153-9.571a11.255,11.255,0,0,1,16.163,0q3.15,3.421,3.15,9.586t-3.15,9.589" transform="translate(-355.108 -276.45)"/>
    <path id="Trazado_57" data-name="Trazado 57" class="cls-2" d="M1175.739,280.475a42.727,42.727,0,0,0,20.472,4.8q15.06,0,25.4-8.492t13.085-23.563h-32.186q-1.789,6.019-6.985,6.025a6.538,6.538,0,0,1-5.822-3.427q-2.117-3.427-2.123-10.141t2.123-10.141a6.554,6.554,0,0,1,5.822-3.43q5.2,0,6.985,6.034H1234.7q-2.747-15.068-13.085-23.563T1196.2,206.11a42.783,42.783,0,0,0-20.473,4.793,34.208,34.208,0,0,0-13.973,13.768q-5,8.975-5,21.021t5,21.024a34.09,34.09,0,0,0,13.973,13.759" transform="translate(-741.569 -81.177)"/>
    <path id="Trazado_58" data-name="Trazado 58" class="cls-2" d="M1211.159,485.78a27.955,27.955,0,0,0-14.176,3.427,27.394,27.394,0,0,0-9.517,8.9V486.329h-30.4v77.25h30.4v-40.96q0-5.479,2.878-8.7a11.326,11.326,0,0,1,15.823,0q2.951,3.221,2.941,8.7v40.948h30.256V518.789q0-15.211-7.457-24.112t-20.747-8.9" transform="translate(-741.779 -277.432)"/>
    <path id="Trazado_59" data-name="Trazado 59" class="cls-1" d="M117.168,487.572H114.88a93.02,93.02,0,0,0,39.43,73.411c.331-.221.677-.42.993-.647-19.345-20.774-31.7-41.443-38.136-72.776" transform="translate(-10.442 -278.681)"/>
  </g>
</svg>
