<svg id="Capa_1" enable-background="new 0 0 512 512" height="512" viewBox="0 0 512 512" width="512" xmlns="http://www.w3.org/2000/svg"><g><g><path d="m511.485 196.528v274.389c0 22.695-18.389 41.084-41.073 41.084h-337.487c-19.388 0-35.634-13.434-39.951-31.503l-.165-23.488-.958-139.878v-276.048c0-22.695 18.389-41.084 41.074-41.084h182.033c16.359 0 69.341 45.173 116.173 92.747 42.732 43.422 80.354 88.843 80.354 103.781z" fill="#ddeafb"/><path d="m511.485 196.528v100.515c0-.113-.01-.227-.01-.35-3.091-123.333-103.554-129.04-136.406-161.893l56.062-42.052c42.732 43.421 80.354 88.842 80.354 103.78z" fill="#cbe2ff"/><path d="m314.952 0h-100.514c.113 0 .227.01.35.01 123.333 3.091 129.04 103.554 161.893 136.406l42.052-56.062c-43.422-42.732-88.843-80.354-103.781-80.354z" fill="#cbe2ff"/><path d="m511.485 196.533v17.377c0-36.586-29.668-66.253-66.253-66.253h-40.324c-22.684 0-41.081-18.397-41.081-41.081v-40.323c0-36.586-29.667-66.253-66.253-66.253h17.377c31.29 0 61.308 12.433 83.433 34.557l78.543 78.543c22.125 22.125 34.558 52.143 34.558 83.433z" fill="#bed8fb"/></g><g fill="#617881"><path d="m441.208 240.032h-280.919c-4.267 0-7.726-3.459-7.726-7.726s3.459-7.726 7.726-7.726h280.919c4.268 0 7.726 3.459 7.726 7.726.001 4.267-3.458 7.726-7.726 7.726z"/><path d="m441.208 281.131h-280.919c-4.267 0-7.726-3.459-7.726-7.726s3.459-7.726 7.726-7.726h280.919c4.268 0 7.726 3.459 7.726 7.726.001 4.267-3.458 7.726-7.726 7.726z"/><path d="m441.208 322.23h-280.919c-4.267 0-7.726-3.459-7.726-7.726s3.459-7.726 7.726-7.726h280.919c4.268 0 7.726 3.459 7.726 7.726.001 4.267-3.458 7.726-7.726 7.726z"/><path d="m314.563 363.329h-154.274c-4.267 0-7.726-3.459-7.726-7.726s3.459-7.726 7.726-7.726h154.274c4.268 0 7.726 3.459 7.726 7.726.001 4.267-3.458 7.726-7.726 7.726z"/><path d="m263.484 126.039h-103.195c-4.267 0-7.726-3.459-7.726-7.726s3.459-7.726 7.726-7.726h103.195c4.268 0 7.726 3.459 7.726 7.726s-3.459 7.726-7.726 7.726z"/></g><g><circle cx="128.25" cy="384.265" fill="#78d0b1" r="127.735"/><path d="m71.972 474.587c20.602 20.602 46.494 32.692 73.294 36.272-38.099 5.1-78.057-6.99-107.338-36.272-49.884-49.884-49.884-130.759 0-180.643 29.282-29.282 69.239-41.372 107.338-36.272-26.8 3.58-52.692 15.67-73.294 36.272-49.884 49.884-49.884 130.76 0 180.643z" fill="#61aab7"/><path d="m117.013 459.097c-2.032 0-4.003-.803-5.463-2.263l-53.324-53.324c-3.018-3.017-3.018-7.909 0-10.927 3.017-3.017 7.909-3.017 10.927 0l45.774 45.774 57.992-114.89c1.922-3.81 6.57-5.34 10.379-3.416 3.809 1.923 5.339 6.569 3.416 10.379l-62.803 124.422c-1.117 2.213-3.227 3.755-5.674 4.147-.408.066-.817.098-1.224.098z" fill="#617881"/></g></g></svg>